<?xml version="1.0" encoding="UTF-8"?>
<svg id="Capa_2" data-name="Capa 2" xmlns="http://www.w3.org/2000/svg" viewBox="0 0 2009.58 301.94"><style>*{fill:#fff !important; stroke:#fff !important}</style>
  <g id="Capa_1-2" data-name="Capa 1">
    <g>
      <path d="M81.66,295.56V89.62H0V16.73h257.32v72.9h-81.66v205.94h-94.01Z"/>
      <path d="M393.95,299.55c-26.56,0-49.73-4.91-69.51-14.74-19.79-9.82-35.12-23.3-46.01-40.43-10.89-17.13-16.33-36.45-16.33-57.96s5.38-41.56,16.13-58.56c10.75-16.99,25.49-30.27,44.22-39.83s39.77-14.34,63.14-14.34c21.51,0,41.36,4.25,59.55,12.75,18.19,8.5,32.79,21.11,43.82,37.84,11.02,16.73,16.53,37.44,16.53,62.14,0,3.19-.14,6.71-.4,10.56-.27,3.85-.54,7.37-.8,10.56h-167.7v-43.42h119.9l-33.86,11.55c0-8.5-1.53-15.73-4.58-21.71-3.06-5.98-7.24-10.62-12.55-13.94-5.32-3.32-11.69-4.98-19.12-4.98s-13.88,1.66-19.32,4.98c-5.45,3.32-9.63,7.97-12.55,13.94-2.93,5.97-4.38,13.21-4.38,21.71v13.54c0,9.3,1.85,17.27,5.58,23.9,3.72,6.64,9.02,11.62,15.93,14.94,6.9,3.32,15.27,4.98,25.1,4.98s18.39-1.33,24.9-3.98c6.5-2.65,13.34-6.63,20.51-11.95l47,47.4c-10.62,11.42-23.7,20.12-39.24,26.09-15.54,5.97-34.19,8.96-55.97,8.96Z"/>
      <path d="M518.63,295.56V0h90.02v295.56h-90.02Z"/>
      <path d="M780.33,301.94c-22.31,0-42.96-3.52-61.94-10.56-18.99-7.03-35.45-17.06-49.39-30.07-13.94-13.01-24.77-28.41-32.46-46.21-7.71-17.79-11.55-37.44-11.55-58.95s3.85-41.16,11.55-58.95c7.7-17.79,18.52-33.19,32.46-46.21,13.94-13.01,30.4-23.04,49.39-30.07,18.98-7.03,39.63-10.56,61.94-10.56,27.35,0,51.58,4.78,72.7,14.34s38.57,23.37,52.38,41.43l-59.35,52.98c-8.23-10.36-17.33-18.39-27.29-24.1-9.96-5.71-21.18-8.56-33.66-8.56-9.83,0-18.72,1.59-26.69,4.78-7.97,3.19-14.81,7.84-20.51,13.94-5.71,6.11-10.16,13.48-13.34,22.11-3.19,8.63-4.78,18.26-4.78,28.88s1.59,20.25,4.78,28.88c3.19,8.63,7.63,16,13.34,22.11,5.71,6.11,12.55,10.75,20.51,13.94,7.97,3.19,16.86,4.78,26.69,4.78,12.48,0,23.7-2.85,33.66-8.56,9.96-5.71,19.05-13.74,27.29-24.1l59.35,52.98c-13.81,17.79-31.27,31.54-52.38,41.23-21.11,9.69-45.35,14.54-72.7,14.54Z"/>
      <path d="M1038.45,299.55c-24.7,0-46.54-4.84-65.53-14.54-18.99-9.69-33.93-23.04-44.81-40.03-10.89-16.99-16.33-36.51-16.33-58.56s5.44-41.56,16.33-58.56c10.89-16.99,25.82-30.27,44.81-39.83,18.98-9.56,40.83-14.34,65.53-14.34s46.61,4.78,65.72,14.34c19.12,9.56,34.06,22.84,44.81,39.83,10.76,17,16.13,36.52,16.13,58.56s-5.38,41.56-16.13,58.56c-10.75,17-25.69,30.34-44.81,40.03-19.12,9.7-41.03,14.54-65.72,14.54ZM1038.45,229.44c6.63,0,12.61-1.59,17.93-4.78,5.31-3.19,9.56-8.03,12.75-14.54,3.19-6.5,4.78-14.4,4.78-23.7s-1.59-17.46-4.78-23.7c-3.19-6.24-7.44-10.95-12.75-14.14-5.32-3.19-11.29-4.78-17.93-4.78s-12.62,1.59-17.93,4.78c-5.31,3.19-9.56,7.9-12.75,14.14-3.19,6.24-4.78,14.14-4.78,23.7s1.59,17.2,4.78,23.7c3.19,6.51,7.43,11.35,12.75,14.54,5.31,3.19,11.29,4.78,17.93,4.78Z"/>
      <path d="M1178.27,295.56V77.68h85.64v63.73l-17.13-18.32c8.5-16.46,19.98-28.81,34.46-37.05,14.47-8.23,30.6-12.35,48.4-12.35,16.73,0,31.87,3.39,45.41,10.16s24.23,17.33,32.07,31.67c7.83,14.34,11.75,32.93,11.75,55.77v124.28h-90.02v-108.75c0-13.54-2.39-23.17-7.17-28.88-4.78-5.71-11.29-8.56-19.52-8.56-6.11,0-11.75,1.39-16.93,4.18-5.18,2.79-9.3,7.37-12.35,13.74-3.06,6.37-4.58,15.01-4.58,25.89v102.37h-90.02Z"/>
      <path d="M1437.58,295.56V16.73h94.01v278.83h-94.01ZM1525.21,192.79v-77.28h99.58v77.28h-99.58ZM1618.42,295.56V16.73h94.01v278.83h-94.01Z"/>
      <path d="M1734.73,295.56V16.73h77.28l141.81,169.69h-35.85V16.73h91.62v278.83h-77.28l-141.81-169.69h35.85v169.69h-91.62Z"/>
    </g>
  </g>
</svg>